<svg xmlns="http://www.w3.org/2000/svg" viewBox="0 0 400 280" role="img" aria-label="ANIMAL AFFAIRS illustration">
  <defs>
    <pattern id="ht" width="8" height="8" patternUnits="userSpaceOnUse">
      <circle cx="2" cy="2" r="1.1" fill="#1c1b17" opacity="0.10"/>
    </pattern>
    <linearGradient id="sky" x1="0" y1="0" x2="0" y2="1">
      <stop offset="0" stop-color="#f6f1e6"/>
      <stop offset="1" stop-color="#e7dfcd"/>
    </linearGradient>
  </defs>
  <rect width="400" height="280" fill="url(#sky)"/>
  <rect width="400" height="280" fill="url(#ht)"/>
  <rect x="6" y="6" width="388" height="268" fill="none" stroke="#1c1b17" stroke-width="2" opacity="0.7"/>
  <g stroke="#1c1b17" stroke-width="6" stroke-linecap="round" stroke-linejoin="round" fill="none">
        <path d="M150 196 q-6 -70 50 -70 q56 0 50 70 z" fill="#3e6b3a" opacity="0.16"/>
    <path d="M150 196 q-6 -70 50 -70 q56 0 50 70"/>
    <path d="M168 132 l-14 -34 l30 18 M232 132 l14 -34 l-30 18"/>
    <circle cx="185" cy="150" r="4" fill="#1c1b17" stroke="none"/>
    <circle cx="215" cy="150" r="4" fill="#1c1b17" stroke="none"/>
    <path d="M200 162 v8 M192 170 h16" stroke-width="4"/>
    <path d="M250 196 q26 -6 30 -30" stroke-width="5"/>
  </g>
  <g transform="translate(0,244)">
    <rect x="6" y="0" width="388" height="30" fill="#3e6b3a"/>
    <text x="200" y="21" text-anchor="middle" font-family="Georgia, 'Times New Roman', serif"
          font-size="15" letter-spacing="3" fill="#f6f1e6">ANIMAL AFFAIRS</text>
  </g>
</svg>